<svg width="11733" height="6600" viewBox="0 0 11733 6600" fill="none" xmlns="http://www.w3.org/2000/svg">
<g clip-path="url(#clip0)">
<rect width="11733" height="6600" fill="white"/>
<rect x="-310" width="12601" height="7593" fill="url(#paint0_linear)"/>
<path d="M138.67 3408.33L143.574 3423.43H159.445L146.605 3432.76L151.51 3447.85L138.67 3438.52L125.83 3447.85L130.734 3432.76L117.894 3423.43H133.765L138.67 3408.33Z" fill="#C4C4C4"/>
<ellipse cx="986.435" cy="2058.6" rx="15.3379" ry="14.8731" fill="#C4C4C4"/>
<ellipse cx="1984.33" cy="2507.58" rx="12.0844" ry="11.1548" fill="#C4C4C4"/>
<ellipse cx="785.648" cy="2287.27" rx="6.97176" ry="6.50697" fill="#C4C4C4"/>
<ellipse cx="708.495" cy="1905.22" rx="6.97176" ry="6.50697" fill="#C4C4C4"/>
<circle cx="217.218" cy="2392.32" r="4.64784" fill="#C4C4C4"/>
<circle cx="217.218" cy="2392.32" r="4.64784" fill="#C4C4C4"/>
<circle cx="1645.03" cy="2885.92" r="4.64784" fill="#C4C4C4"/>
<circle cx="1609.71" cy="3317.24" r="4.64784" fill="#C4C4C4"/>
<circle cx="1879.28" cy="1778.8" r="4.64784" fill="#C4C4C4"/>
<circle cx="1883.93" cy="2387.67" r="4.64784" fill="#C4C4C4"/>
<circle cx="1455.4" cy="1973.08" r="10.2252" fill="#C4C4C4"/>
<circle cx="82.4311" cy="3104.37" r="10.2252" fill="#C4C4C4"/>
<path d="M390.582 2686.06L393.4 2694.73H402.517L395.141 2700.09L397.959 2708.76L390.582 2703.4L383.206 2708.76L386.024 2700.09L378.647 2694.73H387.765L390.582 2686.06Z" fill="#C4C4C4"/>
<path d="M2213.46 3429.71L2216.28 3438.39H2225.4L2218.02 3443.75L2220.84 3452.42L2213.46 3447.06L2206.09 3452.42L2208.91 3443.75L2201.53 3438.39H2210.65L2213.46 3429.71Z" fill="#C4C4C4"/>
<path d="M2296.2 2031.65L2299.01 2040.32H2308.13L2300.75 2045.68L2303.57 2054.35L2296.2 2048.99L2288.82 2054.35L2291.64 2045.68L2284.26 2040.32H2293.38L2296.2 2031.65Z" fill="#C4C4C4"/>
<ellipse cx="11204.4" cy="1125.6" rx="15.3379" ry="14.8731" fill="#C4C4C4"/>
<ellipse cx="11003.6" cy="1354.27" rx="6.97176" ry="6.50697" fill="#C4C4C4"/>
<ellipse cx="9771.97" cy="1998.47" rx="6.97176" ry="6.50697" fill="#C4C4C4"/>
<ellipse cx="10926.5" cy="972.224" rx="6.97176" ry="6.50697" fill="#C4C4C4"/>
<circle cx="10435.2" cy="1459.32" r="4.64784" fill="#C4C4C4"/>
<circle cx="10435.2" cy="1459.32" r="4.64784" fill="#C4C4C4"/>
<circle cx="9840.29" cy="1523.46" r="4.64784" fill="#C4C4C4"/>
<circle cx="11673.4" cy="1040.08" r="10.2252" fill="#C4C4C4"/>
<circle cx="10086.6" cy="840.225" r="10.2252" fill="#C4C4C4"/>
<circle cx="10300.4" cy="2171.37" r="10.2252" fill="#C4C4C4"/>
<ellipse cx="1979.16" cy="1045.35" rx="15.3379" ry="14.8731" transform="rotate(-178.963 1979.16 1045.35)" fill="#C4C4C4"/>
<ellipse cx="989.561" cy="578.382" rx="12.0844" ry="11.1548" transform="rotate(-178.963 989.561 578.382)" fill="#C4C4C4"/>
<ellipse cx="2184.05" cy="820.352" rx="6.97176" ry="6.50697" transform="rotate(-178.963 2184.05 820.352)" fill="#C4C4C4"/>
<ellipse cx="3427.19" cy="198.563" rx="6.97176" ry="6.50697" transform="rotate(-178.963 3427.19 198.563)" fill="#C4C4C4"/>
<ellipse cx="2254.28" cy="1203.74" rx="6.97176" ry="6.50697" transform="rotate(-178.963 2254.28 1203.74)" fill="#C4C4C4"/>
<circle cx="2754.29" cy="725.618" r="4.64784" transform="rotate(-178.963 2754.29 725.618)" fill="#C4C4C4"/>
<circle cx="2754.29" cy="725.618" r="4.64784" transform="rotate(-178.963 2754.29 725.618)" fill="#C4C4C4"/>
<circle cx="1335.65" cy="206.251" r="4.64784" transform="rotate(-178.963 1335.65 206.251)" fill="#C4C4C4"/>
<circle cx="3350.28" cy="672.259" r="4.64784" transform="rotate(-178.963 3350.28 672.259)" fill="#C4C4C4"/>
<circle cx="1081.39" cy="1308.94" r="4.64784" transform="rotate(-178.963 1081.39 1308.94)" fill="#C4C4C4"/>
<circle cx="1087.77" cy="700.093" r="4.64784" transform="rotate(-178.963 1087.77 700.093)" fill="#C4C4C4"/>
<circle cx="1508.72" cy="1122.37" r="10.2252" transform="rotate(-178.963 1508.72 1122.37)" fill="#C4C4C4"/>
<circle cx="3091.62" cy="1350.92" r="10.2252" transform="rotate(-178.963 3091.62 1350.92)" fill="#C4C4C4"/>
<circle cx="2901.95" cy="16.1284" r="10.2252" transform="rotate(-178.963 2901.95 16.1284)" fill="#C4C4C4"/>
<ellipse cx="4002.71" cy="138.221" rx="15.3379" ry="14.8731" transform="rotate(-140.549 4002.71 138.221)" fill="#C4C4C4"/>
<ellipse cx="4303.05" cy="89.2272" rx="6.97176" ry="6.50697" transform="rotate(-140.549 4303.05 89.2272)" fill="#C4C4C4"/>
<ellipse cx="5663.44" cy="374.419" rx="6.97176" ry="6.50697" transform="rotate(-140.549 5663.44 374.419)" fill="#C4C4C4"/>
<ellipse cx="4119.87" cy="433.26" rx="6.97176" ry="6.50697" transform="rotate(-140.549 4119.87 433.26)" fill="#C4C4C4"/>
<circle cx="4808.72" cy="369.303" r="4.64784" transform="rotate(-140.549 4808.72 369.303)" fill="#C4C4C4"/>
<circle cx="4808.72" cy="369.303" r="4.64784" transform="rotate(-140.549 4808.72 369.303)" fill="#C4C4C4"/>
<circle cx="5308.86" cy="697.796" r="4.64784" transform="rotate(-140.549 5308.86 697.796)" fill="#C4C4C4"/>
<circle cx="4684.51" cy="1068.85" r="10.2252" transform="rotate(-140.549 4684.51 1068.85)" fill="#C4C4C4"/>
<g opacity="0.7">
<path opacity="0.05" d="M12214 1438.12C12150.9 1424.43 12087 1413.81 12022.6 1406.32C11958.9 1398.44 11895.1 1392.75 11831.2 1388.62C11767.4 1384.49 11703.7 1381.76 11639.9 1380.4C11576.1 1378.55 11512.1 1379.93 11448.5 1384.53C11320.9 1394.26 11193.4 1417.51 11065.7 1421.93C11033.9 1423.24 11001.9 1423.78 10970.1 1423.39H10946.1L10922.2 1422.81C10906.3 1422.51 10890.3 1421.83 10874.4 1421.1C10810.6 1418.48 10746.8 1412.2 10683 1405.74C10651.1 1402.38 10619.2 1398.78 10587.3 1395.72L10539.4 1390.86C10523.5 1389.49 10507.6 1387.94 10491.6 1386.82C10427.8 1381.67 10364.1 1379.33 10300.3 1376.56C10172.6 1371.02 10045.1 1365.18 9917.51 1367.56C9853.67 1368.63 9789.87 1370.98 9726.11 1374.61C9662.34 1378.25 9598.56 1382.67 9534.76 1387.89C9470.92 1393.34 9407.13 1399.9 9343.35 1408.02C9279.57 1416.14 9215.78 1425.38 9152 1438.22V1452.81C9215.78 1465.65 9279.57 1474.74 9343.35 1483.01C9407.13 1491.28 9470.92 1497.6 9534.76 1503.14C9598.6 1508.68 9662.32 1513.11 9726.11 1516.42C9789.89 1519.72 9853.67 1522.4 9917.51 1523.47C10045.1 1525.85 10172.6 1520.02 10300.3 1514.47C10364.1 1511.7 10427.8 1509.37 10491.6 1504.21C10507.6 1503.09 10523.5 1501.49 10539.4 1500.17L10587.3 1495.31C10619.2 1492.25 10651.1 1488.65 10683 1485.29C10746.8 1478.83 10810.6 1472.55 10874.4 1469.93C10890.3 1469.2 10906.3 1468.52 10922.2 1468.23L10946.1 1467.64L10970.1 1467.4C11001.9 1467.01 11033.9 1467.4 11065.7 1468.86C11193.4 1473.28 11320.9 1496.72 11448.5 1506.25C11512.1 1510.86 11576.1 1512.24 11639.9 1510.39C11703.7 1509.03 11767.5 1506.55 11831.2 1502.17C11895 1497.79 11958.9 1492.44 12022.6 1484.47C12087 1476.97 12150.9 1466.36 12214 1452.66V1438.12Z" fill="white"/>
<path opacity="0.03" d="M3148 2645.25C3097.58 2633.05 3046.92 2625.4 2996.39 2618.65C2945.87 2611.9 2895.31 2607.34 2844.76 2603.84C2794.21 2600.35 2743.68 2598.03 2693.13 2597.09C2667.86 2596.48 2642.71 2596.08 2617.31 2596.69C2604.68 2596.88 2592.05 2597.34 2579.41 2598.07L2560.47 2599.09L2541.52 2600.47C2490.97 2604.17 2440.41 2611.49 2389.89 2617.72C2339.36 2623.94 2288.81 2629.63 2238.25 2631.75C2212.99 2632.81 2187.83 2633.29 2162.44 2632.93H2143.49L2124.54 2632.44C2111.91 2632.2 2099.28 2631.59 2086.65 2631.02C2036.09 2628.78 1985.54 2623.57 1935.01 2618.12C1909.75 2615.36 1884.59 2612.35 1859.2 2609.99L1821.3 2605.92C1808.64 2604.82 1796.01 2603.48 1783.38 2602.54C1732.96 2598.48 1682.3 2596.32 1631.75 2594C1530.67 2589.28 1429.59 2584.56 1328.51 2586.44C1277.98 2587.36 1227.44 2589.32 1176.87 2592.33C1126.31 2595.34 1075.78 2599.04 1025.27 2603.44C974.713 2608.03 924.187 2613.48 873.633 2620.28C823.08 2627.07 772.553 2634.88 722 2645.54V2657.74C772.606 2668.15 823.027 2675.92 873.633 2682.76C924.24 2689.59 974.713 2694.96 1025.27 2699.6C1075.82 2704.23 1126.35 2707.93 1176.87 2710.7C1227.4 2713.47 1277.98 2715.66 1328.51 2716.6C1429.59 2718.47 1530.67 2713.71 1631.75 2709.03C1682.17 2706.71 1732.85 2704.97 1783.38 2700.49C1796.01 2699.51 1808.64 2698.21 1821.3 2697.11L1859.2 2693.05C1884.46 2690.48 1909.75 2687.47 1935.01 2684.91C1985.43 2679.46 2036.09 2674.25 2086.65 2672.02C2099.28 2671.45 2111.91 2670.84 2124.54 2670.59L2143.49 2670.11H2162.44C2187.73 2669.74 2212.86 2670.11 2238.25 2671.29C2288.81 2673.4 2339.33 2678.77 2389.89 2685.32C2440.44 2691.87 2490.97 2698.86 2541.52 2702.57L2560.47 2703.95L2579.41 2704.97C2592.05 2705.64 2604.68 2706.1 2617.31 2706.35C2642.6 2706.96 2667.86 2706.35 2693.13 2705.94C2743.67 2705.02 2794.22 2702.77 2844.76 2699.19C2895.31 2695.41 2945.84 2690.65 2996.42 2684.06C3047 2677.47 3097.47 2669.62 3148 2657.46V2645.25Z" fill="white"/>
<path opacity="0.03" d="M7515.42 2759.13C7563.64 2769.07 7612.47 2776.83 7661.72 2782.36C7710.49 2788.16 7759.27 2792.41 7808.09 2795.55C7856.92 2798.69 7905.66 2800.83 7954.46 2801.99C8003.29 2803.51 8052.18 2802.73 8100.9 2799.65C8198.51 2793.13 8296.17 2776.98 8393.82 2774.23C8418.2 2773.39 8442.62 2773.11 8466.99 2773.49L8485.31 2773.56L8503.62 2774.05C8515.79 2774.31 8527.99 2774.84 8540.2 2775.41C8588.99 2777.48 8637.77 2782.14 8686.59 2786.94C8710.95 2789.43 8735.36 2792.09 8759.73 2794.37L8796.34 2797.98C8808.51 2799 8820.71 2800.15 8832.92 2801C8881.7 2804.87 8930.48 2806.73 8979.27 2808.9C9076.89 2813.24 9174.46 2817.79 9272.06 2816.49C9320.9 2815.93 9369.72 2814.45 9418.51 2812.07C9467.3 2809.68 9516.11 2806.73 9564.93 2803.22C9613.79 2799.54 9662.6 2795.07 9711.42 2789.49C9760.24 2783.91 9809.06 2777.53 9857.89 2768.59L9857.94 2758.21C9809.18 2748.88 9760.41 2742.21 9711.64 2736.13C9662.87 2730.05 9614.09 2725.35 9565.27 2721.21C9516.45 2717.06 9467.71 2713.72 9418.92 2711.16C9370.13 2708.61 9321.35 2706.51 9272.51 2705.55C9174.93 2703.46 9077.32 2707.21 8979.67 2710.76C8930.87 2712.54 8882.07 2714 8833.26 2717.47C8821.04 2718.21 8808.83 2719.31 8796.66 2720.19L8760.02 2723.5C8735.63 2725.58 8711.2 2728.04 8686.82 2730.33C8637.96 2734.74 8589.15 2739 8540.34 2740.67C8528.13 2741.14 8515.92 2741.58 8503.75 2741.73L8485.44 2742.07L8467.12 2742.17C8442.74 2742.35 8418.33 2741.97 8393.95 2740.84C8296.33 2737.29 8198.81 2720.22 8101.25 2713.04C8052.56 2709.56 8003.67 2708.38 7954.83 2709.5C7906.03 2710.27 7857.23 2711.84 7808.42 2714.75C7759.61 2717.67 7710.76 2721.28 7661.94 2726.75C7612.66 2731.88 7563.76 2739.24 7515.46 2748.79L7515.42 2759.13Z" fill="white"/>
<path opacity="0.05" d="M1694 1397.08C1640.98 1375.88 1587.28 1359.45 1533.15 1347.85C1479.53 1335.66 1425.91 1326.85 1372.24 1320.45C1318.58 1314.06 1265.01 1309.84 1211.39 1307.73C1157.72 1304.86 1104 1307 1050.49 1314.13C943.252 1329.18 836.015 1365.16 728.733 1372.01C701.947 1374.04 675.114 1374.87 648.328 1374.27H628.204L608.08 1373.37C594.71 1372.91 581.294 1371.86 567.878 1370.73C514.259 1366.67 460.641 1356.96 406.977 1346.95C380.191 1341.75 353.358 1336.18 326.572 1331.44L286.324 1323.92C272.954 1321.81 259.538 1319.4 246.122 1317.67C192.504 1309.69 138.886 1306.08 85.2675 1301.79C-22.0153 1293.21 -129.252 1284.18 -236.489 1287.86C-290.153 1289.52 -343.787 1293.16 -397.389 1298.78C-450.992 1304.4 -504.611 1311.25 -558.244 1319.32C-611.909 1327.75 -665.527 1337.92 -719.145 1350.48C-772.764 1363.05 -826.382 1377.36 -880 1397.23V1419.81C-826.382 1439.68 -772.764 1453.75 -719.145 1466.55C-665.527 1479.34 -611.909 1489.13 -558.244 1497.71C-504.58 1506.29 -451.008 1513.14 -397.389 1518.25C-343.771 1523.37 -290.153 1527.51 -236.489 1529.17C-129.252 1532.86 -22.0153 1523.82 85.2675 1515.24C138.886 1510.95 192.504 1507.34 246.122 1499.36C259.538 1497.63 272.954 1495.15 286.324 1493.12L326.572 1485.59C353.358 1480.85 380.191 1475.28 406.977 1470.08C460.641 1460.07 514.259 1450.36 567.878 1446.3C581.294 1445.17 594.71 1444.12 608.08 1443.67L628.204 1442.76L648.328 1442.39C675.114 1441.78 701.947 1442.39 728.733 1444.64C836.015 1451.49 943.252 1487.77 1050.49 1502.52C1104 1509.66 1157.72 1511.79 1211.39 1508.92C1265.01 1506.81 1318.63 1502.98 1372.24 1496.2C1425.86 1489.43 1479.53 1481.15 1533.15 1468.8C1587.28 1457.21 1640.98 1440.77 1694 1419.58V1397.08Z" fill="white"/>
</g>
</g>
<defs>
<linearGradient id="paint0_linear" x1="14214" y1="8274" x2="10614" y2="-3554.43" gradientUnits="userSpaceOnUse">
<stop stop-color="#1A233A"/>
<stop offset="0.838542" stop-color="#0A0E17"/>
</linearGradient>
<clipPath id="clip0">
<rect width="11733" height="6600" fill="white"/>
</clipPath>
</defs>
</svg>
